<svg xmlns="http://www.w3.org/2000/svg">
  <symbol id="sun-icon" viewBox="0 0 24 24" fill="none" stroke="currentColor" stroke-width="2" stroke-linecap="round" stroke-linejoin="round">
    <circle cx="12" cy="12" r="4"></circle>
    <path d="M12 2v2"></path>
    <path d="M12 20v2"></path>
    <path d="M4.9 4.9l1.4 1.4"></path>
    <path d="M17.7 17.7l1.4 1.4"></path>
    <path d="M2 12h2"></path>
    <path d="M20 12h2"></path>
    <path d="M6.3 17.7l-1.4 1.4"></path>
    <path d="M19.1 4.9l-1.4 1.4"></path>
  </symbol>
  <symbol id="moon-icon" viewBox="0 0 24 24" fill="none" stroke="currentColor" stroke-width="2" stroke-linecap="round" stroke-linejoin="round">
    <path d="M20.5 14.5A8.5 8.5 0 0 1 9.5 3.5a8.5 8.5 0 1 0 11 11Z"></path>
  </symbol>
  <symbol id="menu-icon" viewBox="0 0 24 24" fill="none" stroke="currentColor" stroke-width="2" stroke-linecap="round" stroke-linejoin="round">
    <line x1="4" y1="7" x2="20" y2="7"></line>
    <line x1="4" y1="12" x2="20" y2="12"></line>
    <line x1="4" y1="17" x2="20" y2="17"></line>
  </symbol>
  <symbol id="close-icon" viewBox="0 0 24 24" fill="none" stroke="currentColor" stroke-width="2" stroke-linecap="round" stroke-linejoin="round">
    <line x1="5" y1="5" x2="19" y2="19"></line>
    <line x1="19" y1="5" x2="5" y2="19"></line>
  </symbol>
</svg>
